<?xml version="1.0" encoding="UTF-8"?> <svg xmlns="http://www.w3.org/2000/svg" xmlns:xlink="http://www.w3.org/1999/xlink" width="342px" height="90px" viewBox="0 0 342 90" version="1.1"><title>accenture_logo_white</title><defs><filter id="filter-1"><feColorMatrix in="SourceGraphic" type="matrix" values="0 0 0 0 0.400000 0 0 0 0 0.400000 0 0 0 0 0.400000 0 0 0 1.000000 0"></feColorMatrix></filter></defs><g id="Page-1" stroke="none" stroke-width="1" fill="none" fill-rule="evenodd"><g filter="url(#filter-1)" id="accenture_logo_white"><g><polygon id="Path" fill="#008FFF" fill-rule="nonzero" points="199.086124 10.023105 218.714922 17.749334 199.086124 25.057929 199.086124 35.498779 232.705661 21.925674 232.705661 13.572994 199.086124 -0.000111"></polygon><path d="M159.202077,76.844545 C158.157992,84.361957 151.893482,90.000016 141.661449,90.000016 C130.385331,90.000016 122.659102,83.317872 122.659102,70.162401 L122.659102,69.327133 C122.659102,56.171662 130.802965,48.863067 141.452632,48.863067 C151.267031,48.863067 159.410894,54.501126 159.410894,67.44778 L159.410894,72.041754 L133.93522,72.041754 C134.352854,79.141532 137.276292,81.856153 142.079083,81.856153 C145.420155,82.273787 148.55241,79.9768 148.970044,76.844545 L159.202077,76.844545 Z M341.081684,76.844545 C339.828782,84.361957 333.773089,90.000016 323.541056,90.000016 C312.264938,90.000016 304.538709,83.317872 304.538709,70.162401 L304.538709,69.327133 C304.538709,56.171662 312.682572,48.863067 323.332239,48.863067 C333.146638,48.863067 341.290501,54.292309 341.290501,67.238963 L340.872867,67.238963 L340.872867,72.250571 L315.397193,72.250571 C315.814827,79.350349 318.738265,82.06497 323.541056,82.06497 C326.882128,82.273787 330.014383,80.185617 330.849651,76.844545 L341.081684,76.844545 Z M12.403726,61.809721 L1.962876,61.809721 C2.589327,53.039407 9.480288,48.863067 18.877053,48.863067 C28.065001,48.863067 34.955962,52.83059 35.164779,62.853806 L35.164779,89.164748 L24.515112,89.164748 L24.515112,84.570774 C22.009308,87.911846 18.041785,90.000016 13.656628,89.791199 C6.55685,89.791199 0.709974,86.24131 0.709974,78.306264 L0.709974,77.88863 C0.709974,68.074231 9.062654,64.941976 19.294687,64.941976 L24.097478,64.941976 L24.097478,63.062623 C24.097478,59.0951 22.218125,56.798113 18.250602,56.798113 C15.327164,56.589296 12.612543,58.677466 12.403726,61.600904 L12.403726,61.809721 Z M246.6964,49.698335 L246.6964,74.756375 C246.6964,79.350349 248.366936,81.438519 252.334459,81.438519 C255.884348,81.647336 259.016603,78.723898 259.22542,75.174009 L259.22542,74.129924 L259.434237,49.698335 L270.501538,49.698335 L270.501538,88.955931 L259.434237,88.955931 L259.434237,83.109055 C257.13725,87.494212 252.752093,90.000016 247.949302,89.791199 C240.849524,89.791199 235.629099,85.406042 235.629099,76.218094 L235.629099,49.698335 L246.6964,49.698335 Z M118.065128,74.547558 C117.438677,83.317872 111.382984,89.791199 100.733317,89.791199 C89.874833,89.791199 81.939787,83.109055 81.939787,69.744767 L81.939787,69.327133 C81.939787,55.962845 90.292467,48.863067 100.733317,48.863067 C109.503631,48.863067 117.021043,53.457041 117.856311,63.689074 L107.415461,63.689074 C106.78901,59.930368 104.70084,57.424564 100.942134,57.424564 C96.139343,57.424564 93.007088,61.18327 93.007088,68.909499 L93.007088,70.162401 C93.007088,78.097447 95.721709,81.647336 100.942134,81.647336 C104.70084,81.647336 107.624278,78.932715 108.250729,74.547558 L118.065128,74.547558 Z M77.55463,74.547558 C76.719362,83.317872 70.663669,89.791199 60.014002,89.791199 C49.155518,89.791199 41.220472,83.109055 41.220472,69.744767 L41.220472,69.327133 C41.220472,55.962845 49.573152,48.863067 60.014002,48.863067 C68.784316,48.863067 76.301728,53.457041 77.136996,63.689074 L66.696146,63.689074 C66.069695,59.930368 63.981525,57.424564 60.222819,57.424564 C55.420028,57.424564 52.287773,61.18327 52.287773,68.909499 L52.287773,70.162401 C52.287773,78.097447 55.002394,81.647336 60.222819,81.647336 C63.981525,81.647336 66.696146,78.932715 67.531414,74.547558 L77.55463,74.547558 Z M221.429543,49.698335 L228.946955,49.698335 L228.946955,57.842198 L221.429543,57.842198 L221.429543,76.426911 C221.429543,79.350349 222.891262,80.812068 225.397066,80.812068 C226.649968,80.812068 227.90287,80.603251 229.155772,80.185617 L229.155772,88.747114 C227.067602,89.373565 224.979432,89.582382 222.891262,89.582382 C214.329765,89.582382 210.362242,85.614859 210.362242,77.679813 L210.362242,57.842198 L205.768268,57.842198 L205.768268,49.698335 L210.571059,49.698335 L210.571059,42.38974 L221.429543,37.795766 L221.429543,49.698335 Z M177.160339,49.698335 L177.160339,55.545211 C179.457326,51.160054 184.0513,48.65425 189.062908,48.863067 C196.162686,48.863067 200.965477,53.039407 200.965477,62.644989 L200.965477,88.955931 L189.898176,88.955931 L189.898176,64.315525 C189.898176,59.721551 188.018823,57.633381 184.0513,57.633381 C180.501411,57.424564 177.369156,60.348002 177.160339,63.897891 L177.160339,88.955931 L166.301855,88.955931 L166.301855,49.698335 L177.160339,49.698335 Z M289.295068,49.489518 L289.295068,56.798113 C290.965604,51.995322 295.768395,48.863067 301.197637,48.863067 L301.197637,59.721551 C293.680225,59.721551 289.295068,62.018538 289.295068,68.491865 L289.295068,88.747114 L278.436584,88.747114 L278.436584,49.489518 L289.295068,49.489518 Z M23.679844,72.041754 L19.294687,72.041754 C13.865445,72.041754 11.150824,73.503473 11.150824,77.053362 L11.150824,77.470996 C11.150824,80.185617 12.82136,82.06497 16.580066,82.06497 C20.338772,82.06497 23.888661,79.9768 23.679844,75.80046 L23.679844,72.041754 Z M330.640834,64.733159 C330.432017,58.886283 327.717396,56.380479 323.332239,56.380479 C319.78235,56.380479 316.650095,58.259832 315.814827,64.733159 L330.640834,64.733159 Z M148.761227,64.733159 C148.55241,58.886283 145.837789,56.380479 141.452632,56.380479 C138.11156,56.589296 134.979305,58.468649 134.144037,64.733159 L148.761227,64.733159 Z" id="Shape" fill="#000000" fill-rule="nonzero"></path></g></g></g></svg> 