<?xml version="1.0" encoding="UTF-8"?> <svg xmlns="http://www.w3.org/2000/svg" xmlns:xlink="http://www.w3.org/1999/xlink" width="106px" height="24px" viewBox="0 0 106 24" version="1.1"><title>Backblaze_Logo_white</title><defs><filter id="filter-1"><feColorMatrix in="SourceGraphic" type="matrix" values="0 0 0 0 0.400000 0 0 0 0 0.400000 0 0 0 0 0.400000 0 0 0 1.000000 0"></feColorMatrix></filter></defs><g id="Page-1" stroke="none" stroke-width="1" fill="none" fill-rule="evenodd"><g filter="url(#filter-1)" id="Backblaze_Logo_white"><g><path d="M23.715,18.145 L25.785,18.145 C26.512,18.145 27.328,17.835 27.328,16.918 C27.328,15.926 26.215,15.762 25.457,15.762 L23.715,15.762 L23.715,18.145 Z M23.715,13.809 L25.387,13.809 C26.097,13.809 26.836,13.512 26.836,12.668 C26.836,11.793 26.008,11.57 25.286,11.57 L23.715,11.57 L23.715,13.809 L23.715,13.809 Z M21.402,9.617 L25.312,9.617 C27.148,9.617 29.148,10.004 29.148,12.281 C29.148,13.449 28.422,14.25 27.34,14.594 L27.34,14.621 C28.715,14.801 29.637,15.821 29.637,17.184 C29.637,19.371 27.562,20.102 25.699,20.102 L21.402,20.102 L21.402,9.617 Z M35.191,12.668 L33.921,15.926 L36.481,15.926 L35.191,12.668 Z M34.305,9.618 L36.215,9.618 L40.773,20.102 L38.168,20.102 L37.266,17.879 L33.196,17.879 L32.32,20.102 L29.773,20.102 L34.305,9.617 L34.305,9.618 Z M48.54,12.34 C48.078,11.793 47.41,11.484 46.555,11.484 C44.809,11.484 43.52,12.902 43.52,14.859 C43.52,16.813 44.809,18.234 46.48,18.234 C47.41,18.234 48.168,17.82 48.64,17.109 L50.566,18.543 C49.696,19.789 48.215,20.367 46.773,20.367 C43.503,20.367 41.121,18.219 41.121,14.859 C41.121,11.496 43.504,9.352 46.773,9.352 C47.945,9.352 49.426,9.75 50.316,10.891 L48.54,12.34 Z M51.773,9.617 L54.082,9.617 L54.082,13.969 L58.152,9.617 L61.172,9.617 L56.508,14.488 L61.574,20.102 L58.348,20.102 L54.082,15.125 L54.082,20.102 L51.773,20.102 L51.773,9.617 Z" id="Shape" fill="#231F20" fill-rule="nonzero"></path><path d="M64.54,18.145 L66.613,18.145 C67.34,18.145 68.153,17.835 68.153,16.918 C68.153,15.926 67.043,15.762 66.289,15.762 L64.539,15.762 L64.539,18.145 L64.54,18.145 Z M64.54,13.809 L66.21,13.809 C66.926,13.809 67.664,13.512 67.664,12.668 C67.664,11.793 66.836,11.57 66.109,11.57 L64.539,11.57 L64.539,13.809 L64.54,13.809 Z M62.23,9.617 L66.14,9.617 C67.973,9.617 69.973,10.004 69.973,12.281 C69.973,13.449 69.246,14.25 68.168,14.594 L68.168,14.621 C69.543,14.801 70.465,15.821 70.465,17.184 C70.465,19.371 68.391,20.102 66.523,20.102 L62.23,20.102 L62.23,9.617 L62.23,9.617 Z M71.77,9.617 L74.082,9.617 L74.082,17.969 L78.359,17.969 L78.359,20.102 L71.769,20.102 L71.77,9.617 Z" id="Shape" fill="#646475" fill-rule="nonzero"></path><path d="M82.59,12.668 L81.316,15.926 L83.879,15.926 L82.589,12.668 L82.59,12.668 Z M81.703,9.618 L83.613,9.618 L88.172,20.102 L85.57,20.102 L84.664,17.879 L80.59,17.879 L79.719,20.102 L77.172,20.102 L81.703,9.617 L81.703,9.618 Z M88.535,17.969 L93.852,11.66 L88.727,11.66 L88.727,9.617 L96.648,9.617 L96.648,11.66 L91.438,17.969 L96.828,17.969 L96.828,20.102 L88.535,20.102 L88.535,17.969 Z M98.355,9.617 L105.48,9.617 L105.48,11.75 L100.664,11.75 L100.664,13.703 L105.211,13.703 L105.211,15.836 L100.664,15.836 L100.664,17.969 L105.746,17.969 L105.746,20.102 L98.356,20.102 L98.355,9.617 Z" id="Shape" fill="#646475" fill-rule="nonzero"></path><path d="M4.555,0.973 C4.555,0.973 7.977,3.965 7.512,6.617 C7.305,7.797 5.738,9.747 6.582,11.597 C7.496,13.594 7.969,17.441 3.859,16.445 C-0.195,15.465 0.121,10.5 3.133,7.88 C6.187,5.223 5.156,2.3 4.555,0.973" id="Path" fill="#D30035" fill-rule="nonzero"></path><path d="M7.68,9.945 C7.453,11.965 9.687,13.977 7.914,16.711 C6.684,18.605 8.57,21.266 10.992,20.781 C13.648,20.25 14.305,18.571 14.234,16.621 C14.141,14.145 13.156,13.457 10.964,11.598 C8.594,9.586 10.426,5.789 10.426,5.789 C10.426,5.789 7.934,7.723 7.68,9.945" id="Path" fill="#D30035" fill-rule="nonzero"></path><path d="M0.465,15.855 C1.215,16.777 2.665,17.863 5.441,17.925 C6.281,17.941 5.625,19.508 7.305,20.918 C8.758,22.141 10.715,22.168 11.762,21.773 C12.372,21.547 12.945,21.328 12.504,21.895 C10.531,24.422 7.105,24.262 4.66,23.348 C1.754,22.262 1.023,20.125 0.547,18.793 C0.035,17.348 0.297,15.648 0.465,15.855" id="Path" fill="#D30035" fill-rule="nonzero"></path></g></g></g></svg> 