<?xml version="1.0" encoding="UTF-8"?> <svg xmlns="http://www.w3.org/2000/svg" xmlns:xlink="http://www.w3.org/1999/xlink" width="360px" height="190px" viewBox="0 0 360 190" version="1.1"><title>cisco_logo_white</title><defs><filter id="filter-1"><feColorMatrix in="SourceGraphic" type="matrix" values="0 0 0 0 0.400000 0 0 0 0 0.400000 0 0 0 0 0.400000 0 0 0 1.000000 0"></feColorMatrix></filter></defs><g id="Page-1" stroke="none" stroke-width="1" fill="none" fill-rule="evenodd"><g filter="url(#filter-1)" id="cisco_logo_white"><g><path d="M177.467022,127.069587 C176.997021,126.941254 169.76534,125.07625 162.080324,125.07625 C147.530295,125.07625 138.770278,132.932933 138.770278,144.632956 C138.770278,154.989643 146.098626,160.154654 154.893643,162.932993 C155.868645,163.25466 157.305315,163.704661 158.261983,164.021328 C162.176991,165.252997 165.301997,167.083001 165.301997,170.253007 C165.301997,173.798014 161.690323,176.093019 153.838641,176.093019 C146.938627,176.093019 140.323614,174.119682 138.930278,173.768014 L138.930278,188.163043 C139.706946,188.328043 147.568628,189.87138 155.966979,189.87138 C168.047003,189.87138 181.865364,184.593036 181.865364,168.879671 C181.865364,161.257989 177.198688,154.241308 166.953667,150.984635 L162.598659,149.597966 C160.00032,148.777964 155.361977,147.449628 155.361977,143.641287 C155.361977,140.632948 158.798651,138.51461 165.126997,138.51461 C170.587008,138.51461 177.232021,140.349614 177.467022,140.422948 L177.467022,127.069587 Z M310.868955,157.474648 C310.868955,166.576333 303.897274,173.939681 294.542256,173.939681 C285.177237,173.939681 278.22389,166.576333 278.22389,157.474648 C278.22389,148.391297 285.177237,141.024615 294.542256,141.024615 C303.897274,141.024615 310.868955,148.391297 310.868955,157.474648 M294.542256,125.09625 C275.302217,125.09625 261.503856,139.607946 261.503856,157.474648 C261.503856,175.369684 275.302217,189.87138 294.542256,189.87138 C313.780628,189.87138 327.598989,175.369684 327.598989,157.474648 C327.598989,139.607946 313.780628,125.09625 294.542256,125.09625 M117.601902,188.758044 L101.815204,188.758044 L101.815204,126.204586 L117.601902,126.204586" id="Shape" fill="#049FD9" fill-rule="nonzero"></path><path d="M80.1168269,127.337921 C78.6334906,126.89792 73.1501463,125.09625 65.7234648,125.09625 C46.5134264,125.09625 32.4117315,138.792944 32.4117315,157.474648 C32.4117315,177.629689 47.9784293,189.87138 65.7234648,189.87138 C72.7734789,189.87138 78.1551563,188.201376 80.1168269,187.644709 L80.1168269,170.853008 C79.4384922,171.229676 74.2784819,174.173015 66.8551337,174.173015 C56.338446,174.173015 49.5550991,166.771334 49.5550991,157.474648 C49.5550991,147.894629 56.6317799,140.789615 66.8551337,140.789615 C74.4051488,140.789615 79.4818256,143.797954 80.1168269,144.129622" id="Path" fill="#049FD9" fill-rule="nonzero"></path><path d="M244.883823,127.337921 C243.400487,126.89792 237.917142,125.09625 230.490461,125.09625 C211.280423,125.09625 197.178728,138.792944 197.178728,157.474648 C197.178728,177.629689 212.745425,189.87138 230.490461,189.87138 C237.540475,189.87138 242.922153,188.201376 244.883823,187.644709 L244.883823,170.853008 C244.205488,171.229676 239.045478,174.173015 231.62213,174.173015 C221.105442,174.173015 214.322095,166.771334 214.322095,157.474648 C214.322095,147.894629 221.398776,140.789615 231.62213,140.789615 C239.172145,140.789615 244.248822,143.797954 244.883823,144.129622" id="Path" fill="#049FD9" fill-rule="nonzero"></path><path d="M101.768537,7.93768253 C101.768537,3.62600724 98.2468632,0.12933358 93.9301879,0.12933358 C89.6151792,0.12933358 86.0935055,3.62600724 86.0935055,7.93768253 L86.0935055,91.0045153 C86.0935055,95.3411907 89.6151792,98.8361977 93.9301879,98.8361977 C98.2468632,98.8361977 101.768537,95.3411907 101.768537,91.0045153 L101.768537,7.93768253 Z M58.7201174,37.4244082 C58.7201174,33.1143996 55.2001104,29.6127259 50.8834351,29.6127259 C46.5667598,29.6127259 43.0467528,33.1143996 43.0467528,37.4244082 L43.0467528,75.3994841 C43.0467528,79.7344928 46.5667598,83.2311665 50.8834351,83.2311665 C55.2001104,83.2311665 58.7201174,79.7344928 58.7201174,75.3994841 L58.7201174,37.4244082 Z M15.6733647,58.9777846 C15.6733647,54.6661093 12.1533576,51.1711023 7.83668234,51.1711023 C3.52500705,51.1711023 0,54.6661093 0,58.9777846 L0,75.3994841 C0,79.7344928 3.52500705,83.2311665 7.83668234,83.2311665 C12.1533576,83.2311665 15.6733647,79.7344928 15.6733647,75.3994841" id="Shape" fill="#049FD9" fill-rule="nonzero"></path><path d="M187.862043,7.93768253 C187.862043,3.62600724 184.34037,0.12933358 180.023694,0.12933358 C175.708686,0.12933358 172.187012,3.62600724 172.187012,7.93768253 L172.187012,91.0045153 C172.187012,95.3411907 175.708686,98.8361977 180.023694,98.8361977 C184.34037,98.8361977 187.862043,95.3411907 187.862043,91.0045153 L187.862043,7.93768253 Z M144.813624,37.4244082 C144.813624,33.1143996 141.293617,29.6127259 136.976942,29.6127259 C132.660266,29.6127259 129.140259,33.1143996 129.140259,37.4244082 L129.140259,75.3994841 C129.140259,79.7344928 132.660266,83.2311665 136.976942,83.2311665 C141.293617,83.2311665 144.813624,79.7344928 144.813624,75.3994841 L144.813624,37.4244082 Z M101.766871,58.9777846 C101.766871,54.6661093 98.2468637,51.1711023 93.9301884,51.1711023 C89.6185131,51.1711023 86.093506,54.6661093 86.093506,58.9777846 L86.093506,75.3994841 C86.093506,79.7344928 89.6185131,83.2311665 93.9301884,83.2311665 C98.2468637,83.2311665 101.766871,79.7344928 101.766871,75.3994841" id="Shape" fill="#049FD9" fill-rule="nonzero" transform="translate(136.977774, 49.482766) scale(-1, 1) translate(-136.977774, -49.482766) "></path><g id="Group" transform="translate(266.000720, 49.506000) scale(-1, 1) translate(-266.000720, -49.506000) translate(172.000720, 0.006000)" fill="#049FD9" fill-rule="nonzero"><path d="M101.768537,7.93168253 C101.768537,3.62000724 98.2468632,0.12333358 93.9301879,0.12333358 C89.6151792,0.12333358 86.0935055,3.62000724 86.0935055,7.93168253 L86.0935055,90.9985153 C86.0935055,95.3351907 89.6151792,98.8301977 93.9301879,98.8301977 C98.2468632,98.8301977 101.768537,95.3351907 101.768537,90.9985153 L101.768537,7.93168253 Z M58.7201174,37.4184082 C58.7201174,33.1083996 55.2001104,29.6067259 50.8834351,29.6067259 C46.5667598,29.6067259 43.0467528,33.1083995 43.0467528,37.4184082 L43.0467528,75.3934841 C43.0467528,79.7284928 46.5667598,83.2251665 50.8834351,83.2251665 C55.2001104,83.2251665 58.7201174,79.7284928 58.7201174,75.3934841 L58.7201174,37.4184082 Z M15.6733647,58.9717846 C15.6733647,54.6601093 12.1533576,51.1651023 7.83668234,51.1651023 C3.52500705,51.1651023 0,54.6601093 0,58.9717846 L0,75.3934841 C0,79.7284928 3.52500705,83.2251665 7.83668234,83.2251665 C12.1533576,83.2251665 15.6733647,79.7284928 15.6733647,75.3934841" id="Shape"></path><path d="M187.862043,7.93168253 C187.862043,3.62000724 184.34037,0.12333358 180.023694,0.12333358 C175.708686,0.12333358 172.187012,3.62000724 172.187012,7.93168253 L172.187012,90.9985153 C172.187012,95.3351907 175.708686,98.8301977 180.023694,98.8301977 C184.34037,98.8301977 187.862043,95.3351907 187.862043,90.9985153 L187.862043,7.93168253 Z M144.813624,37.4184082 C144.813624,33.1083996 141.293616,29.6067259 136.976942,29.6067259 C132.660266,29.6067259 129.140259,33.1083995 129.140259,37.4184082 L129.140259,75.3934841 C129.140259,79.7284928 132.660266,83.2251665 136.976942,83.2251665 C141.293616,83.2251665 144.813624,79.7284928 144.813624,75.3934841 L144.813624,37.4184082 Z M101.766871,58.9717846 C101.766871,54.6601093 98.2468637,51.1651023 93.9301884,51.1651023 C89.6185131,51.1651023 86.093506,54.6601093 86.093506,58.9717846 L86.093506,75.3934841 C86.093506,79.7284928 89.6185131,83.2251665 93.9301884,83.2251665 C98.2468637,83.2251665 101.766871,79.7284928 101.766871,75.3934841" id="Shape" transform="translate(136.977774, 49.476766) scale(-1, 1) translate(-136.977774, -49.476766) "></path></g></g></g></g></svg> 