<?xml version="1.0" encoding="UTF-8"?> <svg xmlns="http://www.w3.org/2000/svg" xmlns:xlink="http://www.w3.org/1999/xlink" width="601px" height="120px" viewBox="0 0 601 120" version="1.1"><title>riverbed-technology-logo_white</title><defs><filter id="filter-1"><feColorMatrix in="SourceGraphic" type="matrix" values="0 0 0 0 0.400000 0 0 0 0 0.400000 0 0 0 0 0.400000 0 0 0 1.000000 0"></feColorMatrix></filter></defs><g id="Page-1" stroke="none" stroke-width="1" fill="none" fill-rule="evenodd"><g filter="url(#filter-1)" id="riverbed-technology-logo_white"><g><path d="M220.5,34.5 C196.4,34.5 184.8,47.5 184.8,69.3 L184.8,84.7 C184.8,104.6 194.4,118.6 219.8,118.6 C229.5,118.6 235.5,116.7 241.2,113.6 C246.1,110.8 250.1,107.1 252.7,102.9 L243.9,94.1 C242.9,93.1 241.3,93.8 240.7,94.7 C236.6,101.5 231.6,105.6 220,105.6 C205.3,105.6 199.4,98.6 199.4,86.3 L199.4,83.4 L249.6,83.4 C254.1,83.4 256.101392,81.1 256.101392,77.7 L256.101392,68.3 C256.2,49.1 245.6,34.5 220.5,34.5 Z M240.9,71.6 L199.3,71.6 L199.3,67.5 C199.3,54.7 205.8,47.2 220.4,47.2 C235,47.2 241,54.7 241,67.5 L241,71.6 L240.9,71.6 Z" id="Shape" fill="#F2672A" fill-rule="nonzero"></path><path d="M456.8,34.5 C432.7,34.5 421.1,47.5 421.1,69.3 L421.1,84.7 C421.1,104.6 430.7,118.6 456.1,118.6 C465.8,118.6 471.8,116.7 477.5,113.6 C482.4,110.8 486.4,107.1 489,102.9 L480.2,94.1 C479.2,93.1 477.6,93.8 477,94.7 C472.9,101.5 467.9,105.6 456.3,105.6 C441.6,105.6 435.7,98.6 435.7,86.3 L435.7,83.4 L486.1,83.4 C490.6,83.4 492.6,81.1 492.6,77.7 L492.6,68.3 C492.5,49.1 481.9,34.5 456.8,34.5 Z M477.4,71.6 L435.7,71.6 L435.7,67.5 C435.7,54.7 442.2,47.2 456.8,47.2 C471.5,47.2 477.4,54.7 477.4,67.5 L477.4,71.6 L477.4,71.6 Z" id="Shape" fill="#F2672A" fill-rule="nonzero"></path><path d="M171.7,36.4 L166.2,36.4 C161.5,36.4 160.2,37.2 159.1,40.5 C159.1,40.5 136.9,93.3 136.4,97.6 L135.8,97.6 C135.2,93.5 112.8,40.5 112.8,40.5 C111.7,37.3 110.4,36.4 105.7,36.4 L100.4,36.4 C96.5,36.4 95.7,37.4 97.2,41.3 L128.3,112.5 C129.4,115.4 131.1,116.2 134.1,116.2 L138.3,116.2 C141.4,116.2 142.7,115.4 144,112.5 L175.3,41.2 C176.6,37.2 175.5,36.4 171.7,36.4 Z" id="Path" fill="#F2672A" fill-rule="nonzero"></path><path d="M315.8,34.5 L310.3,34.5 C295.4,34.8 285.5,37.4 279.2,39.7 C273.9,42 272.7,43.9 272.7,49.3 L272.7,112.2 C272.7,115.3 273.7,116.3 276.8,116.3 L283.9,116.3 C286.8,116.3 287.8,115.3 287.8,112.2 L287.8,54.7 C287.8,53.2 288.1,52.1 290.2,51.3 C295.1,49.8 301.5,48.4 310,48.4 L315.8,48.4 C318.9,48.4 319.9,47.4 319.9,44.3 L319.9,38.5 C319.9,35.5 318.9,34.5 315.8,34.5 Z" id="Path" fill="#F2672A" fill-rule="nonzero"></path><path d="M76.8,36.4 L69.7,36.4 C66.8,36.4 65.8,37.4 65.8,40.3 L65.8,112.3 C65.8,115.2 66.8,116.2 69.9,116.2 L77,116.2 C79.9,116.2 80.9,115.2 80.9,112.3 L80.9,40.3 C81,37.4 79.8,36.4 76.8,36.4 Z" id="Path" fill="#F2672A" fill-rule="nonzero"></path><path d="M372.4,34.5 C361.9,34.5 354.9,37.3 350,38.7 L350,28.8 L350,28.8 L350,15.7 C350,13.6 348.9,10.8 347.4,9.4 L339.3,1.3 C339.3,1.3 339.3,1.3 339.1,1.1 L339.1,1.1 L339.1,1.1 C338.6,0.6 338,0.5 337.3,0.5 C335.8,0.5 334.7,1.6 334.7,3.1 C334.7,3.3 334.7,3.4 334.7,3.4 C334.7,9.6 334.7,31.4 334.7,104 C334.7,109.5 335.7,110.8 341.2,113.4 C347.2,116 356.1,118.6 369.2,118.6 C394.6,118.6 405,109.7 405,87 L405,64.3 C405.1,43.2 396.2,34.5 372.4,34.5 Z M389.9,86.5 C389.9,101.1 384.2,104.7 368.2,104.7 C361.2,104.7 356.7,103.6 352.5,101.9 C350.2,101.1 350.1,100.4 350.1,98.7 L350.1,52.8 C354.2,51.3 360.8,48.4 370.4,48.4 C384.7,48.4 390,52 390,64.9 L389.9,86.5 L389.9,86.5 Z" id="Shape" fill="#F2672A" fill-rule="nonzero"></path><path d="M578.4,15.2 C578.4,13.1 577.3,10.3 575.8,8.9 L567.9,1 L567.9,1 C567.4,0.7 566.8,0.4 566,0.4 C564.5,0.4 563.2,1.5 563.2,3 L563.2,3 L563.2,3 L563.2,38 L563.2,38 L563.2,38.3 C558.7,37.2 551.5,34.6 541,34.6 C517.8,34.6 508.1,43.5 508.1,65.6 L508.1,88.6 C508.1,110.3 517.8,119.1 542.8,119.1 C557.4,119.1 565.2,116.3 571.8,113.9 C577.3,111.6 578.4,110.2 578.4,104.5 L578.4,40.3 L578.4,40.3 L578.4,15.2 L578.4,15.2 Z M563.1,98.8 C563.1,100.7 562.9,101.2 560.8,102 C556.3,103.5 551.6,104.8 543.9,104.8 C529.2,104.8 523,101.4 523,87.8 L523,65.8 C523,51.9 528.2,48.3 543.6,48.3 C553.2,48.3 559,50.9 562.9,52 L562.9,98.8 L563.1,98.8 Z" id="Shape" fill="#F2672A" fill-rule="nonzero"></path><path d="M43.2,34.5 L37.7,34.5 C22.8,34.8 12.9,37.3 6.6,39.7 C1.3,42 0.1,43.9 0.1,49.3 L0.1,112.2 C0.1,115.3 1.1,116.3 4.2,116.3 L11.3,116.3 C14.2,116.3 15.2,115.3 15.2,112.2 L15.2,54.7 C15.2,53.2 15.5,52.1 17.6,51.3 C22.5,49.8 28.9,48.4 37.4,48.4 L43.2,48.4 C46.3,48.4 47.3,47.4 47.3,44.3 L47.3,38.5 C47.3,35.5 46.3,34.5 43.2,34.5 Z" id="Path" fill="#F2672A" fill-rule="nonzero"></path><path d="M73.8,10.7 L72.8,10.7 C67.3,10.7 65.7,12.2 65.7,17.7 L65.7,18.7 C65.7,24.2 67.5,25.7 72.8,25.7 L73.8,25.7 C79.3,25.7 80.9,24.1 80.9,18.7 L80.9,17.7 C81,12.1 79.4,10.7 73.8,10.7 Z" id="Path" fill="#F2672A" fill-rule="nonzero"></path><path d="M593.1,0.3 C597,0.3 600.1,3.4 600.1,7.4 C600.1,11.3 597,14.5 593.1,14.5 C589.4,14.5 586.3,11.4 586.3,7.4 C586.3,3.4 589.4,0.3 593.1,0.3 Z M593.1,13.4 C596.3,13.4 598.9,10.8 598.9,7.4 C598.9,4 596.3,1.4 593.1,1.4 C589.9,1.4 587.4,4 587.4,7.4 C587.4,10.8 589.9,13.4 593.1,13.4 Z M590.9,3.5 L593.7,3.5 C595,3.5 596,4.5 596,5.8 C596,6.9 595.4,7.6 594.5,7.7 L594.5,7.7 C594.5,7.7 594.5,7.9 594.8,8.2 L596.3,11.1 L595,11.1 L593.5,8 L592,8 L592,11.1 L590.9,11.1 L590.9,3.5 Z M593.3,7.2 C594.1,7.2 594.6,6.7 594.6,5.7 C594.6,4.9 594.1,4.4 593.3,4.4 L591.8,4.4 L591.8,7.2 L593.3,7.2 Z" id="Shape" fill="#F2672A" fill-rule="nonzero"></path></g></g></g></svg> 