<?xml version="1.0" encoding="UTF-8"?> <svg xmlns="http://www.w3.org/2000/svg" xmlns:xlink="http://www.w3.org/1999/xlink" width="119px" height="47px" viewBox="0 0 119 47" version="1.1"><title>Group</title><g id="Symbols" stroke="none" stroke-width="1" fill="none" fill-rule="evenodd"><g id="Group" transform="translate(0.000000, 0.000032)" fill="#FFFFFF"><path d="M37.6751571,32.037842 L37.6751571,27.1389829 L40.3557623,27.1389829 L40.3557623,32.037842 C40.3557623,33.2799675 40.5079448,34.2494863 41.9909185,34.2494863 C43.4738922,34.2494863 43.6259135,33.2799675 43.6259135,32.037842 L43.6259135,27.1389829 L46.3065187,27.1389829 L46.3065187,32.037842 C46.3065187,34.9214109 44.9376819,36.4803146 41.9909185,36.4803146 C39.0441551,36.4803146 37.6751571,34.9214109 37.6751571,32.037842 L37.6751571,32.037842 Z M50.5774636,27.1389829 L54.7157324,27.1389829 C56.9463995,27.1389829 58.6955315,28.127847 58.6955315,30.5548683 C58.6955315,32.9820508 56.9463995,33.9705924 54.7157324,33.9705924 L53.2580687,33.9705924 L53.2580687,36.2267308 L50.5774636,36.2267308 L50.5774636,27.1389829 Z M54.7157324,31.7336381 C55.4951843,31.7336381 55.9894551,31.3660786 55.9894551,30.5548683 C55.9894551,29.7438192 55.4951843,29.3760984 54.7157324,29.3760984 L53.2580687,29.3760984 L53.2580687,31.7336381 L54.7157324,31.7336381 Z M63.3245245,33.5016316 C64.0723791,33.9705924 64.9596807,34.2494863 65.8466599,34.2494863 C66.3410919,34.2494863 67.3551048,34.2685091 67.3551048,33.5525741 C67.3551048,32.963028 66.2904719,32.8234198 65.8722923,32.7347542 C64.2816301,32.3979858 62.3548444,31.7081669 62.3548444,29.7626808 C62.3548444,27.6208405 64.1547576,26.8855603 66.036888,26.8855603 C67.3739664,26.8855603 68.6796087,27.1075469 69.8329073,27.8044591 L68.6223791,29.6106594 C67.8493756,29.2746972 67.0065681,29.1163886 66.1635993,29.1163886 C65.7454198,29.1163886 65.0609208,29.2050543 65.0609208,29.7626808 C65.0609208,30.3583529 65.9607968,30.4663638 66.3917119,30.5613167 C68.0900626,30.935647 70.0610199,31.4484571 70.0610199,33.5525741 C70.0610199,35.9035041 67.9317541,36.4803146 65.9735324,36.4803146 C64.61727,36.4803146 63.2042616,36.1506395 62.1141574,35.307832 L63.3245245,33.5016316 Z M73.3821137,29.3698112 L73.3821137,27.1389829 L82.0070268,27.1389829 L82.0070268,29.3698112 L79.0349534,29.3698112 L79.0349534,36.2267308 L76.354187,36.2267308 L76.354187,29.3698112 L73.3821137,29.3698112 Z M89.8462008,32.7160538 L88.9590604,30.428157 L88.0717589,32.7160538 L89.8462008,32.7160538 Z M83.88287,36.2267308 L87.6027981,27.1389829 L90.3151616,27.1389829 L94.0349284,36.2267308 L91.2087504,36.2267308 L90.6383883,34.7564927 L87.2795714,34.7564927 L86.7092093,36.2267308 L83.88287,36.2267308 Z M96.7580931,31.6828569 C96.7580931,28.628405 98.7350152,26.8855603 101.739008,26.8855603 C103.228269,26.8855603 104.514727,27.1899253 105.649003,28.1912026 L104.349809,29.9147021 C103.507163,29.3445012 102.771883,29.1163886 101.739008,29.1163886 C100.205253,29.1163886 99.4640083,30.2569516 99.4640083,31.6828569 C99.4640083,33.1089233 100.205253,34.2494863 101.739008,34.2494863 C102.771883,34.2494863 103.507163,34.0215349 104.349809,33.4510116 L105.649003,35.1748335 C104.514727,36.1761108 103.228269,36.4803146 101.739008,36.4803146 C98.7350152,36.4803146 96.7580931,34.7374699 96.7580931,31.6828569 L96.7580931,31.6828569 Z M109.30622,36.2267308 L109.30622,27.1389829 L111.986664,27.1389829 L111.986664,30.2192284 L115.092059,27.1389829 L118.311268,27.1389829 L114.496387,30.922589 L118.355762,36.2267308 L115.307436,36.2267308 L112.728232,32.6780081 L111.986664,33.412966 L111.986664,36.2267308 L109.30622,36.2267308 Z" id="Fill-1"></path><path d="M17.5980083,5.22756692 L17.5980083,31.8198534 C17.5980083,34.3935761 19.5202801,36.4802824 21.8913614,36.4802824 C24.2624427,36.4802824 26.1848758,34.3935761 26.1848758,31.8198534 L26.1848758,-3.55271368e-15 L17.5980083,5.22756692 Z" id="Fill-3"></path><g id="Group-7" transform="translate(0.000000, 11.768321)"><path d="M21.9174775,32.4064171 C22.6421178,32.4064171 23.3532166,32.3499935 24.0475494,32.2421438 C21.5523361,33.9345297 18.0884101,34.6601373 14.2582142,34.6601373 C6.65650291,34.6601373 -3.22420632e-05,28.7780565 -3.22420632e-05,20.4020521 L-3.22420632e-05,5.31421746 L8.59570181,0.118892608 L8.59570181,18.6426028 C8.59570181,27.1896513 14.3159274,32.4064171 21.9174775,32.4064171" id="Fill-5"></path></g></g></g></svg> 